<svg width="1042" height="234" viewBox="0 0 1042 234" fill="none" xmlns="http://www.w3.org/2000/svg">
<g clip-path="url(#ffffff)">
<path d="M117.04 91.7864H132.045C132.606 91.7859 133.145 92.0023 133.549 92.3901C133.954 92.7779 134.193 93.3072 134.216 93.8671L134.92 109.859H136.515C138.894 102.441 142.766 97.3085 148.131 94.4616C153.06 91.8524 159.512 90.4389 167.488 90.2209C167.776 90.217 168.063 90.2704 168.331 90.3782C168.599 90.486 168.843 90.6459 169.049 90.8488C169.254 91.0516 169.418 91.2932 169.529 91.5596C169.64 91.826 169.698 92.1119 169.698 92.4007V109.889C169.693 110.462 169.464 111.01 169.061 111.417C168.657 111.824 168.11 112.058 167.537 112.068C159.582 112.26 153.381 113.545 148.934 115.923C144.097 118.484 140.446 122.826 138.755 128.03C136.832 133.533 135.874 141.178 135.881 150.968V190.897C135.881 191.475 135.651 192.03 135.242 192.439C134.833 192.847 134.279 193.077 133.7 193.077H117.04C116.753 193.078 116.469 193.023 116.204 192.914C115.939 192.805 115.698 192.644 115.495 192.442C115.292 192.239 115.132 191.998 115.023 191.733C114.914 191.468 114.858 191.184 114.859 190.897V93.9662C114.858 93.6796 114.914 93.3955 115.023 93.1305C115.132 92.8654 115.292 92.6246 115.495 92.4219C115.698 92.2192 115.939 92.0587 116.204 91.9496C116.469 91.8406 116.753 91.7851 117.04 91.7864Z" fill="#ffffff"/>
<path d="M193.646 190.236C190.639 188.888 187.987 186.858 185.9 184.308C183.813 181.757 182.349 178.756 181.624 175.542C179.899 168.726 179.04 157.635 179.047 142.271C179.047 127.078 179.906 116.057 181.624 109.207C182.342 106.001 183.805 103.009 185.893 100.472C187.981 97.9352 190.637 95.9247 193.646 94.6029C199.93 91.6437 210.227 90.1641 224.539 90.1641C238.851 90.1641 249.148 91.6206 255.432 94.5335C258.441 95.8553 261.097 97.8658 263.185 100.403C265.274 102.94 266.736 105.932 267.454 109.138C269.179 115.955 270.041 126.976 270.041 142.201C270.041 157.566 269.179 168.656 267.454 175.473C266.739 178.7 265.279 181.715 263.192 184.278C261.105 186.841 258.448 188.881 255.432 190.236C249.135 193.215 238.838 194.708 224.539 194.715C210.241 194.721 199.943 193.228 193.646 190.236ZM241.834 173.719C245.012 172.193 246.965 169.379 247.692 165.277C248.418 161.176 248.778 153.493 248.772 142.231C248.772 131.002 248.405 123.356 247.672 119.294C246.938 115.232 244.992 112.484 241.834 111.05C238.656 109.597 232.894 108.871 224.549 108.871C216.204 108.871 210.442 109.597 207.264 111.05C204.086 112.504 202.133 115.251 201.406 119.294C200.68 123.336 200.313 130.982 200.306 142.231C200.306 153.46 200.673 161.142 201.406 165.277C202.14 169.412 204.092 172.226 207.264 173.719C210.442 175.232 216.204 175.991 224.549 175.998C232.894 176.005 238.656 175.245 241.834 173.719Z" fill="#ffffff"/>
<path d="M427.241 193.076C426.954 193.077 426.67 193.022 426.405 192.913C426.14 192.804 425.899 192.643 425.696 192.44C425.493 192.238 425.333 191.997 425.224 191.732C425.115 191.467 425.059 191.183 425.06 190.896V79.0731H424.267L373.582 191.788C373.411 192.171 373.133 192.497 372.781 192.725C372.43 192.954 372.019 193.076 371.6 193.076H364.662C364.243 193.073 363.833 192.95 363.482 192.722C363.13 192.494 362.852 192.17 362.679 191.788L312.014 79.0731H311.211V190.896C311.212 191.183 311.157 191.467 311.047 191.732C310.938 191.997 310.778 192.238 310.575 192.44C310.372 192.643 310.131 192.804 309.866 192.913C309.601 193.022 309.317 193.077 309.03 193.076H301.3C301.013 193.077 300.729 193.022 300.464 192.913C300.199 192.804 299.958 192.643 299.755 192.44C299.552 192.238 299.392 191.997 299.282 191.732C299.173 191.467 299.118 191.183 299.119 190.896V58.6029C299.132 58.0334 299.368 57.4916 299.775 57.0935C300.183 56.6954 300.73 56.4725 301.3 56.4727H316.166L367.823 171.278H368.814L420.689 56.4727H435.398C435.975 56.4753 436.528 56.7058 436.937 57.114C437.345 57.5222 437.576 58.0751 437.578 58.6524V190.896C437.578 191.474 437.348 192.029 436.939 192.437C436.531 192.846 435.976 193.076 435.398 193.076H427.241Z" fill="#ffffff"/>
<path d="M471.593 192.219C466.881 190.771 462.878 187.62 460.364 183.381C457.847 179.14 456.588 173.195 456.588 165.546C456.588 157.732 457.483 151.708 459.274 147.474C460.124 145.41 461.38 143.537 462.966 141.966C464.553 140.395 466.438 139.159 468.511 138.328C472.885 136.472 479.109 135.548 487.184 135.554C491.029 135.554 504.541 135.884 527.72 136.545V129.193C527.72 120.329 526.924 114.054 525.332 110.368C524.559 108.549 523.363 106.942 521.842 105.68C520.321 104.418 518.52 103.539 516.59 103.115C512.348 101.999 505.129 101.437 494.934 101.431C490.56 101.431 485.129 101.662 478.64 102.124C473.546 102.494 469.35 102.92 466.053 103.402C465.742 103.448 465.426 103.426 465.124 103.338C464.823 103.251 464.544 103.099 464.306 102.895C464.068 102.69 463.877 102.436 463.746 102.151C463.615 101.866 463.546 101.556 463.546 101.242V94.6337C463.541 94.1152 463.723 93.6124 464.057 93.2162C464.392 92.8199 464.857 92.5566 465.369 92.4737C476.677 90.8239 488.096 90.0521 499.523 90.1651C511.178 90.1651 519.821 91.2914 525.45 93.5438C528.064 94.4872 530.441 95.9892 532.415 97.9452C534.388 99.9011 535.912 102.264 536.878 104.869C538.86 110.153 539.851 118.08 539.851 128.648V190.822C539.851 191.108 539.795 191.391 539.685 191.656C539.576 191.92 539.415 192.161 539.213 192.363C539.01 192.565 538.77 192.726 538.505 192.836C538.241 192.945 537.957 193.001 537.671 193.001H531.417C530.854 193.002 530.312 192.785 529.906 192.395C529.499 192.005 529.26 191.473 529.237 190.911L528.721 177.911H527.73C525.087 184.662 520.551 189.131 514.122 191.317C506.753 193.643 499.053 194.751 491.326 194.597C483.14 194.65 476.562 193.857 471.593 192.219ZM513.111 181.795C515.296 181.24 517.337 180.223 519.096 178.813C520.856 177.403 522.292 175.633 523.31 173.621C524.882 170.488 526.019 167.154 526.689 163.713C527.394 159.713 527.726 155.657 527.68 151.595V145.443H490.365C484.141 145.443 479.572 145.872 476.658 146.731C475.299 147.088 474.039 147.747 472.972 148.66C471.904 149.573 471.057 150.715 470.493 152.002C469.304 154.644 468.709 158.815 468.709 164.516C468.709 169.945 469.406 174.014 470.8 176.722C472.195 179.431 474.676 181.287 478.244 182.291C481.825 183.282 487.322 183.777 494.736 183.777C502.288 183.757 508.413 183.087 513.111 181.766V181.795Z" fill="#ffffff"/>
<path d="M631.934 133.69C631.934 123.888 631.273 116.837 629.952 112.537C628.631 108.236 626.08 105.357 622.301 103.897C618.528 102.444 612.469 101.717 604.123 101.717C594.714 101.717 587.793 103.273 583.36 106.384C579.074 109.266 576.108 113.732 575.113 118.799C574.056 123.957 573.528 131.223 573.528 140.596V190.85C573.528 191.428 573.298 191.983 572.889 192.392C572.48 192.8 571.925 193.03 571.347 193.03H563.587C563.3 193.031 563.016 192.976 562.751 192.867C562.486 192.758 562.245 192.597 562.042 192.395C561.839 192.192 561.679 191.951 561.57 191.686C561.46 191.421 561.405 191.137 561.406 190.85V93.9688C561.405 93.6822 561.46 93.3981 561.57 93.1331C561.679 92.868 561.839 92.6272 562.042 92.4245C562.245 92.2218 562.486 92.0613 562.751 91.9523C563.016 91.8432 563.3 91.7877 563.587 91.789H570.039C570.602 91.7885 571.144 92.0059 571.55 92.3956C571.956 92.7853 572.196 93.3171 572.219 93.8796L572.735 107.077H573.726C575.843 101.78 579.745 97.389 584.757 94.6623C589.984 91.6635 597.912 90.1641 608.544 90.1641C618.6 90.1641 626.182 91.4851 631.29 94.1273C633.741 95.3565 635.914 97.0747 637.675 99.1758C639.435 101.277 640.747 103.717 641.528 106.344C643.246 111.84 644.105 119.552 644.105 129.479V190.86C644.107 191.147 644.051 191.431 643.942 191.696C643.833 191.961 643.672 192.202 643.469 192.405C643.267 192.607 643.026 192.768 642.761 192.877C642.496 192.986 642.211 193.041 641.925 193.04H634.115C633.828 193.04 633.545 192.984 633.28 192.874C633.016 192.765 632.775 192.604 632.573 192.402C632.37 192.199 632.21 191.959 632.1 191.694C631.991 191.43 631.934 191.146 631.934 190.86V133.69Z" fill="#ffffff"/>
<path d="M676.623 192.219C671.91 190.771 667.907 187.62 665.393 183.381C662.876 179.14 661.617 173.195 661.617 165.546C661.617 157.732 662.513 151.708 664.303 147.474C665.154 145.409 666.409 143.537 667.996 141.966C669.582 140.395 671.468 139.158 673.54 138.328C677.908 136.472 684.132 135.547 692.213 135.554C696.058 135.554 709.571 135.884 732.75 136.545V129.193C732.75 120.329 731.953 114.053 730.361 110.368C729.589 108.549 728.392 106.941 726.871 105.68C725.351 104.418 723.55 103.538 721.619 103.115C717.377 101.999 710.159 101.437 699.963 101.43C695.589 101.43 690.158 101.662 683.67 102.124C678.575 102.494 674.379 102.92 671.082 103.402C670.772 103.448 670.455 103.426 670.154 103.338C669.852 103.251 669.573 103.099 669.335 102.894C669.098 102.69 668.907 102.436 668.775 102.151C668.644 101.866 668.576 101.556 668.575 101.242V94.6335C668.571 94.1151 668.752 93.6122 669.087 93.216C669.421 92.8198 669.886 92.5564 670.398 92.4735C681.7 90.8247 693.112 90.0529 704.532 90.165C716.188 90.165 724.831 91.2912 730.46 93.5436C733.073 94.4882 735.449 95.9906 737.423 97.9464C739.397 99.9022 740.92 102.264 741.888 104.869C743.87 110.153 744.861 118.079 744.861 128.648V190.822C744.861 191.4 744.631 191.954 744.222 192.363C743.813 192.772 743.259 193.001 742.681 193.001H736.397C735.834 193.002 735.292 192.784 734.886 192.395C734.479 192.005 734.239 191.473 734.216 190.911L733.701 177.911H732.71C730.067 184.662 725.528 189.131 719.092 191.317C711.723 193.645 704.023 194.753 696.296 194.597C688.149 194.649 681.591 193.857 676.623 192.219ZM718.141 181.795C720.33 181.248 722.377 180.238 724.143 178.833C725.909 177.428 727.354 175.661 728.379 173.651C729.948 170.517 731.082 167.183 731.749 163.743C732.459 159.744 732.791 155.686 732.74 151.625V145.472H695.394C689.17 145.472 684.601 145.901 681.687 146.76C680.329 147.117 679.068 147.777 678.001 148.69C676.933 149.603 676.086 150.745 675.523 152.031C674.333 154.673 673.739 158.845 673.739 164.545C673.739 169.975 674.432 174.044 675.82 176.752C677.207 179.46 679.692 181.313 683.273 182.31C686.854 183.301 692.352 183.797 699.765 183.797C707.318 183.764 713.443 183.087 718.141 181.766V181.795Z" fill="#ffffff"/>
<path d="M769.759 230.413V223.825C769.761 223.526 769.824 223.23 769.945 222.957C770.065 222.683 770.24 222.438 770.46 222.234C770.679 222.031 770.937 221.875 771.219 221.775C771.501 221.675 771.8 221.634 772.098 221.655C783.278 222.467 793.82 222.873 803.725 222.873C814.297 222.873 821.981 221.78 826.778 219.594C829.117 218.536 831.183 216.957 832.818 214.979C834.453 213.001 835.615 210.675 836.214 208.18C837.74 202.75 838.503 194.275 838.503 182.755V179.179H837.512C836.396 181.806 834.771 184.185 832.729 186.18C830.688 188.175 828.271 189.746 825.619 190.801C820.049 193.113 812.694 194.272 803.556 194.279C792.832 194.279 784.788 192.819 779.423 189.899C774.057 186.98 770.314 181.917 768.193 174.71C766.072 167.497 765.012 156.737 765.012 142.429C765.012 128.122 766.062 117.306 768.163 109.98C770.284 102.628 774.028 97.4961 779.393 94.5831C784.758 91.6701 792.803 90.1971 803.527 90.1641C812.268 90.1641 819.589 91.3233 825.49 93.6418C831.39 95.9603 835.662 100.429 838.305 107.047H839.296L839.98 93.8202C840.01 93.2629 840.253 92.7385 840.659 92.3551C841.065 91.9717 841.602 91.7584 842.16 91.7593H848.394C848.681 91.758 848.965 91.8134 849.23 91.9225C849.496 92.0316 849.736 92.1921 849.939 92.3948C850.142 92.5975 850.302 92.8383 850.412 93.1033C850.521 93.3684 850.576 93.6524 850.575 93.9391V179.545C850.575 194.077 849.551 205.069 847.502 212.519C845.454 219.97 841.295 225.423 835.024 228.878C828.727 232.319 819.09 234.04 806.113 234.04C793.771 234.04 782.31 233.571 771.732 232.633C771.182 232.583 770.673 232.325 770.306 231.913C769.94 231.501 769.744 230.965 769.759 230.413ZM826.084 179.674C828.184 178.758 830.081 177.435 831.666 175.782C833.252 174.129 834.494 172.179 835.322 170.043C836.715 166.558 837.583 162.885 837.898 159.144C838.308 155.042 838.51 149.481 838.503 142.459C838.503 135.583 838.335 130.114 837.998 126.081C837.774 122.507 837.005 118.989 835.718 115.648C834.074 110.984 830.644 107.164 826.184 105.026C821.671 102.84 815.575 101.747 807.897 101.747C798.488 101.747 791.736 102.675 787.639 104.531C783.542 106.387 780.761 110.06 779.294 115.549C777.834 121.044 777.103 130.015 777.103 142.459C777.103 154.904 777.834 163.821 779.294 169.211C780.754 174.568 783.536 178.175 787.639 180.031C791.742 181.887 798.495 182.815 807.897 182.815C815.582 182.775 821.644 181.728 826.084 179.674Z" fill="#ffffff"/>
<path d="M955.379 146.799H883.652C883.652 157.797 884.382 165.723 885.843 170.578C886.476 172.874 887.643 174.988 889.248 176.748C890.853 178.507 892.851 179.863 895.08 180.704C899.778 182.627 907.558 183.588 918.421 183.588C923.456 183.588 929.072 183.357 935.27 182.894C940.404 182.504 944.953 182.055 948.917 181.547C949.224 181.507 949.535 181.534 949.831 181.624C950.127 181.715 950.399 181.867 950.631 182.072C950.863 182.276 951.048 182.528 951.175 182.81C951.302 183.092 951.367 183.398 951.365 183.707V190.167C951.366 190.671 951.191 191.16 950.871 191.551C950.552 191.941 950.106 192.208 949.611 192.307C944.985 193.146 940.311 193.702 935.617 193.971C929.069 194.44 922.547 194.675 916.052 194.675C902.797 194.675 893.061 193.149 886.844 190.097C883.807 188.642 881.128 186.535 878.999 183.927C876.87 181.319 875.342 178.273 874.524 175.007C872.542 167.992 871.551 157.199 871.551 142.628C871.551 128.056 872.423 117.332 874.167 110.456C874.894 107.196 876.324 104.134 878.357 101.485C880.391 98.8356 882.98 96.6626 885.942 95.1181C892.1 91.8154 902.067 90.1641 915.844 90.1641C928.153 90.1641 937.093 91.7527 942.663 94.9299C948.233 98.1071 951.742 103.14 953.189 110.03C954.649 116.913 955.379 127.703 955.379 142.4V146.799ZM894.178 103.897C892.107 104.73 890.269 106.051 888.818 107.746C887.366 109.442 886.346 111.462 885.843 113.636C884.521 118.406 883.791 126.216 883.652 137.069H943.654V134.285C943.654 124.377 942.825 117.111 941.167 112.487C939.512 107.919 936.766 104.917 932.931 103.451C929.095 101.984 923.188 101.271 915.239 101.271C905.434 101.304 898.413 102.179 894.178 103.897Z" fill="#ffffff"/>
<path d="M97.7835 77.7672C97.2583 64.6786 87.2182 56.3359 74.7104 56.3359H4.17262C1.42723 56.3359 2.27343e-05 57.9113 2.27343e-05 61.4981V190.809C-0.00128945 191.096 0.0542139 191.38 0.163327 191.645C0.272441 191.91 0.433002 192.15 0.635738 192.353C0.838474 192.556 1.07937 192.716 1.3445 192.825C1.60964 192.935 1.89377 192.99 2.18048 192.989H20.2485C20.5352 192.99 20.8194 192.935 21.0845 192.825C21.3496 192.716 21.5905 192.556 21.7933 192.353C21.996 192.15 22.1566 191.91 22.2657 191.645C22.3748 191.38 22.4303 191.096 22.429 190.809V145.321H73.412C88.1994 145.321 97.4862 133.946 97.9421 122.978C98.4377 111.088 98.2989 90.6279 97.7835 77.7672ZM78.9523 112.505C78.5063 120.273 76.2565 124.058 67.5446 124.058H38.0787C35.9874 124.058 34.9567 124.841 33.3114 126.367C33.3114 126.367 26.3736 133.015 23.321 135.749C23.0732 135.967 22.6272 136.037 22.6272 135.383V80.809C22.6272 77.7672 24.3617 75.6568 27.3945 75.6568H71.1919C76.9998 75.6568 78.8631 79.085 79.0019 85.6541C79.1307 91.4206 79.4182 105.332 79.0019 112.505H78.9523Z" fill="#ffffff"/>
<path d="M1006.59 90.5392C1006.59 92.1939 1005.92 93.4225 1003.79 93.4225H984.959C984.44 93.3867 983.921 93.4877 983.453 93.7155C982.985 93.9433 982.585 94.2898 982.293 94.7204C982.293 94.7204 977.873 99.6745 976.515 101.28C976.396 101.418 976.307 101.389 976.307 101.181V69.1971C976.307 67.3641 977.298 66.5021 978.794 66.5021H1003.83C1004.2 66.473 1004.57 66.5239 1004.92 66.6514C1005.27 66.779 1005.59 66.9802 1005.86 67.2414C1006.12 67.5026 1006.33 67.8178 1006.46 68.1655C1006.59 68.5131 1006.65 68.8853 1006.63 69.2566L1006.59 90.5392Z" fill="#ffffff"/>
<path d="M952.226 66.0623C950.561 66.0623 949.332 65.3984 949.332 63.2682V44.4428C949.369 43.9247 949.269 43.406 949.043 42.9384C948.817 42.4707 948.473 42.0705 948.044 41.7775C948.044 41.7775 943.088 37.3584 941.483 36.001C941.344 35.8821 941.364 35.793 941.582 35.793H973.565C975.398 35.793 976.261 36.7838 976.261 38.2799V63.2682C976.29 63.6391 976.239 64.012 976.111 64.3615C975.984 64.7111 975.782 65.0291 975.521 65.2941C975.26 65.5591 974.945 65.7648 974.597 65.8974C974.249 66.0299 973.877 66.0861 973.505 66.0623H952.226Z" fill="#ffffff"/>
<path d="M976.248 10.8284C976.248 9.16379 976.912 7.93519 979.043 7.93519H997.874C998.394 7.97384 998.915 7.87518 999.384 7.64911C999.854 7.42303 1000.26 7.07749 1000.55 6.64713C1000.55 6.64713 1004.96 1.69307 1006.32 0.0879578C1006.44 -0.0507558 1006.54 -0.0309396 1006.54 0.187039V32.1605C1006.54 33.9935 1005.55 34.8555 1004.04 34.8555H979.062C978.69 34.8877 978.315 34.839 977.963 34.7128C977.61 34.5866 977.29 34.3859 977.022 34.1243C976.755 33.8628 976.548 33.5466 976.414 33.1974C976.28 32.8482 976.223 32.4742 976.248 32.1011V10.8284Z" fill="#ffffff"/>
<path d="M1031.17 35.7573C1032.82 35.7573 1034.06 36.4211 1034.06 38.5514V57.3768C1034.02 57.8965 1034.12 58.4172 1034.35 58.8867C1034.57 59.3563 1034.92 59.7581 1035.35 60.052C1035.35 60.052 1040.3 64.4611 1041.91 65.8185C1042.05 65.9374 1042.02 66.0365 1041.81 66.0365H1009.83C1007.99 66.0365 1007.13 65.0457 1007.13 63.5396V38.5514C1007.1 38.1804 1007.15 37.8076 1007.28 37.458C1007.41 37.1085 1007.61 36.7904 1007.87 36.5254C1008.13 36.2605 1008.45 36.0547 1008.79 35.9222C1009.14 35.7897 1009.51 35.7334 1009.89 35.7573H1031.17Z" fill="#ffffff"/>
</g>
<defs>
<clipPath id="clip0">
<rect width="1042" height="234" fill="white"/>
</clipPath>
</defs>
</svg>
